<svg xmlns="http://www.w3.org/2000/svg" width="252" height="252" viewBox="0 0 252 252"><path d="M130.5 148.9c-.3 0-.4.2-.4.6h-.1a.5.5 0 0 0-.5.5c0 .4.2.6.5.6s.4-.2.4-.6h.1c.3 0 .5-.1.5-.5s-.2-.6-.5-.6zm1.4-.8l-.8.8h.3l1.1-.3a3 3 0 0 0 .8-.8h-.3zm3.1-2.5c-.3 0-.4.2-.4.5h-.2c-.3 0-.4.2-.4.6h-.1c-.3 0-.5.2-.5.6s.2.5.5.5.4-.1.4-.5h.1c.3 0 .5-.2.5-.6h.1c.3 0 .5-.2.5-.6a.5.5 0 0 0-.5-.5zm23-5.9l-1.3 1.4a2.6 2.6 0 0 0 .8 1.1l1.2.2a2.1 2.1 0 0 0 1.3-.5 4.1 4.1 0 0 0 1.1-1.2l.8-1.5c.2-.5.3-1.1.4-1.1H159c-.2 0-.5 1-1 1.6z"/><path d="M126 0a126 126 0 1 0 126 126A126 126 0 0 0 126 0zm94.5 74.7a4.2 4.2 0 0 1-1.6.4h-3.6l-5.2 1.2a20.4 20.4 0 0 0-3.6 1.6 8.8 8.8 0 0 0-2.5 2.2 13.1 13.1 0 0 0-1.7 2.9c-.5 1.1-1 2.4-1.5 3.8l-1.6 5c-.4 1.2-.8 2.4-1.2 3.4a30.5 30.5 0 0 1-1.3 3.2c-.4 1-.9 2-1.4 3.1l-1.7 3.2a31 31 0 0 1-2.7 4c-.9 1.3-1.9 2.5-2.9 3.7l-3.1 3.5-3.1 3.8a11.1 11.1 0 0 0-1.3 2.7l-1 2.5a9.8 9.8 0 0 1-1.3 2.2 6.7 6.7 0 0 1-2.5 1.6l-1.3.5-2 .7-2 .6-1.4.4a3 3 0 0 1 .2 2 2 2 0 0 1-.9.9l-1.2.6a1.8 1.8 0 0 0-.9 1L164 142a3.1 3.1 0 0 1-1 1.5 6.1 6.1 0 0 1-1.8.9 12.3 12.3 0 0 1-2 .2l-1.8-.2h-.9c-.4 0-.8.2-1.1.1s-.4-.4-.4-.9a.4.4 0 0 1 .1-.3c.1-.1.2-.2.2-.3l.3-.3c0-.1.1-.2.1-.4-.1 0-.1-.1-.1-.2l-3.4 1.7-3.3 2-3.3 2.2-3.3 1.9-.9.5-1.1.5-1 .8a1.6 1.6 0 0 0-.5 1c0 .1.1.2.1.4v.2l1.8 1.6a15.4 15.4 0 0 0 1.9 1.7 15.6 15.6 0 0 0 2 1.6l2.1 1.3 1.8.6 1.9.6a6 6 0 0 1 1.9.6 5.1 5.1 0 0 1 1.6.9 6.2 6.2 0 0 1 1.4 1.4l1.1 1.5a7.6 7.6 0 0 0 1.1 1.4 6.4 6.4 0 0 0 1.5 1.3l1.6.6 2.1.6a9.5 9.5 0 0 1 1.7 1 2 2 0 0 1 .8 1.7.4.4 0 0 1-.1.3v.2l-5.6 1.2-1.1.4-1.1.2h-.6l-1.1-.7-1.7-1-1.7-1c-.5-.3-.9-.5-1-.7l-.2-.2-.3-.5-.4-.6a.8.8 0 0 1-.2-.4l-2.3-4.5-1.1-.4-1.8-.8-2.1-.9-2.1-.9-1.8-.8-1.1-.6-2.8-1.6a17.1 17.1 0 0 1-2.6-2.1 18.9 18.9 0 0 1-2-2.7 8.7 8.7 0 0 1-1-3.1l-.5.2-.6.4-.9.6-1.7 1.2-2.1 1.4-2.1 1.3-1.7 1.1-1 .5-5.9 3.5a26.5 26.5 0 0 0-4.5 3.4 17.3 17.3 0 0 0-3.6 4.4c-.9 1.7-.7 3.9-2.4 6.6v.2c0 .1.1.2 0 .4v.9a10 10 0 0 0 1.2 4.4 6.9 6.9 0 0 0 2.1 2.6 8.2 8.2 0 0 0 2.6 1.4l2.5.9a7.5 7.5 0 0 1 2 1 5.3 5.3 0 0 1 .8 2h-13.2l-.2-.4c-.1-.2-.2-.1-.4-.2h-.4l-.7-.4a2.6 2.6 0 0 1-1.2-1.5 12.9 12.9 0 0 1-.5-2.1c0-.8.2-1.6.2-2.3a21.1 21.1 0 0 0 .3-2.1v-1.4a8.2 8.2 0 0 1 .3-1.8c.2-.8.3-1.6.5-2.6s.5-2.1.8-3.2.6-2.1.8-3.1.5-1.9.7-2.6l.4-1.8.6-2c.3-.5.6-1.2 1-1.8a16.1 16.1 0 0 0 4.5-2.6 24.2 24.2 0 0 0 3.2-3.2c1-1.2 2-2.3 2.9-3.5a16.6 16.6 0 0 1 3.4-3l1.4-.7 2.1-.8 2.3-1 2.1-1.1 1.6-1.3a2.2 2.2 0 0 0 .6-1.5c0-.5-.1-.9-.1-1.3a1.4 1.4 0 0 0-.6-1.2l-.7-.3-1.2-.6-1.2-.5-.8-.3-2-1.2-2.6-1.9a25.6 25.6 0 0 0-2.5-1.6 3 3 0 0 0-1.7-.5h-7.9c-5.9 0-11.7-.1-17.5.1s-11.6.2-17.5.2c-4.3 0-8.6-.2-12.7-.4a121.8 121.8 0 0 1-12.3-1.3 93.9 93.9 0 0 1-11.9-2.9 83.9 83.9 0 0 1-11.7-5l-1.4-.8-1.6-1a5 5 0 0 1-1.3-1.2 2.4 2.4 0 0 1-.5-1.6 5.9 5.9 0 0 1 2.1.4l2.3.9 2.2 1 1.5.6c1.4.6 3 1.1 4.6 1.6l5 1.5 5.1 1 4.8.3H71l2.5-.4 3.3-.5 3.6-.6 3.4-.6 2.7-.6 6.8-1.3c2.4-.4 4.9-1 7.3-1.6s4.8-1.3 7.2-2.1a65 65 0 0 0 6.6-2.7l3.8-1.8 3.7-1.6 3.9-1.3a25.9 25.9 0 0 1 4.2-.9h2.8l1.7-.2 1.1-.2 1.8-.3 3.4-.7 4-.9 4-.9c1.2-.3 2.3-.9 3.3-1.1s1.5-.8 1.8-.8h6.5c2.7 0 5.4.5 7.9.7a66.5 66.5 0 0 0 7.8.6 10.1 10.1 0 0 0 5-1.3 18.3 18.3 0 0 0 4.5-3.5 33.3 33.3 0 0 0 3.8-4.9 44.8 44.8 0 0 0 3.2-5.6 54 54 0 0 0 2.6-5.5c.7-1.8 1.3-3.4 1.7-4.8a26.7 26.7 0 0 0 1.1-3.4c.4-1.1.7-2.2 1-3.1s.8-1.8 1.2-2.6a7 7 0 0 1 1.8-2 6.8 6.8 0 0 1 2.6-1.6 12.7 12.7 0 0 1 3.7-.8h3.1c.7 1.7 1.7.9 2.9 1.3a28.3 28.3 0 0 1 3.6 1.6 11.9 11.9 0 0 1 2.9 1.8 2.7 2.7 0 0 1 1.3 2.1 2 2 0 0 1-.5 1.4 2.8 2.8 0 0 1-1.1.5z"/></svg>