<svg xmlns="http://www.w3.org/2000/svg" width="252" height="252" viewBox="0 0 252 252"><path d="M126 0a126 126 0 1 0 126 126A126 126 0 0 0 126 0zm109 115h-7.3a91 91 0 0 1-9.1-.4l-9-1-9-.9c-3-.3-6.1-.5-9.1-.5a126.9 126.9 0 0 0-16.2 1 73.9 73.9 0 0 0-15.6 3.7l-30.3 10.9a2.4 2.4 0 0 0-1.2 1.5 22.9 22.9 0 0 0-.8 2.8l-.6 2.8a8.5 8.5 0 0 1-.6 1.9 2.7 2.7 0 0 0 1.3 1.3l2.4 1.2 2.9 1.2a11.5 11.5 0 0 1 2.7 1.4 7.6 7.6 0 0 1 2.1 1.8 3.6 3.6 0 0 1 .8 2.5 1.3 1.3 0 0 1-.5 1.2 3.6 3.6 0 0 1-1.2.8l-1.6.8-1.5.8-1.3 1a2.4 2.4 0 0 0-.4 1.5 3.7 3.7 0 0 0 .7 2.5 10.8 10.8 0 0 0 2 1.6l2.3 1.3a6.8 6.8 0 0 1 2.1 1.7 13.2 13.2 0 0 1 2 3.4 16.3 16.3 0 0 1 1.3 3.7c.3 1.2.6 2.5.8 3.8s.1 2.6.2 3.9l1.3 1.3v7.1h.9l1 .2 1 .2.5.2a3.2 3.2 0 0 1 .1.8 3.8 3.8 0 0 1-.1 1 5.6 5.6 0 0 1-.4 1.2 2.1 2.1 0 0 1-.6 1c-.2.3-.5.3-.9.3H141c-.2 0-.5-.6-1-.9l-1.5-.8-1.5-.8c-.5-.3-.9-.8-1.2-.8h-6.1a5 5 0 0 1 .7-3 3.9 3.9 0 0 1 1.6-1.5l2.1-.6 2.1-.4a3.4 3.4 0 0 0 1.6-.6 1.3 1.3 0 0 0 .7-1.3.8.8 0 0 0-.1-.4v-.4l-.8-1.7c-.4-.8-.8-1.6-1.3-2.4a20.7 20.7 0 0 0-1.5-2.5 15.8 15.8 0 0 0-1.5-1.8l-1.3-.8-1.9-.9-1.7-1a3.3 3.3 0 0 1-1-1.1c-.3-.8-.6-1.8-.9-2.9a15.1 15.1 0 0 0-1.1-3.2 7.8 7.8 0 0 0-1.7-2.6 3.7 3.7 0 0 0-2.8-1 20.6 20.6 0 0 0-6 .8 23.2 23.2 0 0 0-5.7 2.2 23.8 23.8 0 0 0-4.9 3.4 24.4 24.4 0 0 0-3.9 4.6h-.6a.5.5 0 0 1-.2-.4c-.1-.2-.1-.4-.2-.6a1.4 1.4 0 0 0-.2-.6.4.4 0 0 0-.1-.3h-.3a1.4 1.4 0 0 0-1 .5 4.8 4.8 0 0 0-.9 1.1l-.8 1.3a3 3 0 0 1-.9 1 3.2 3.2 0 0 1-.6-1.6 7.6 7.6 0 0 1-.1-1.6 9.2 9.2 0 0 1 .4-2.9l.9-2.8c.3-.9.6-1.5.9-2.5a15.9 15.9 0 0 0 .4-2.8h-4.8c0-1.6.2-1.7.6-2.3a6.1 6.1 0 0 1 1.6-1.6 10.2 10.2 0 0 1 2.1-.9l2.1-.3 3 .2 2.9.5 2.9.5 2.9.2h2.2a2.5 2.5 0 0 0-1.6-1.4l-2.5-.4-2.7-.2c-.9-.1-1.6.1-2.2-.2l-3.8-2.2h-.3a11.4 11.4 0 0 0-3.2 0 15.6 15.6 0 0 1-3.1.2 7.3 7.3 0 0 1-3-.7l-2.6-1.4-2.6-1.5a4.8 4.8 0 0 0-2.8-.6v5.9h1.6l.9-.3.9-.5.9-.7h.6v2.7l2-.7c0 .1.2.3.2.5a2 2 0 0 0 .1.5 5.6 5.6 0 0 1-1.3 3.9 23.1 23.1 0 0 1-3.2 2.9 21.3 21.3 0 0 0-4.6-1.3l-4.7-.7v-7.7l-1.7.5-2.1 1A14 14 0 0 0 70 148c-.5.4-1 .8-1 1.2v6.8a9.6 9.6 0 0 0 3-.3l1.8-.5 1.2-.6a2.7 2.7 0 0 1 1.2-.3h.4a4.5 4.5 0 0 0 .2.8c.2.3.3.8.5 1.2a6.5 6.5 0 0 1 .4 1.3 5.1 5.1 0 0 1 .2.9 6.5 6.5 0 0 1-.4 1.9 5.4 5.4 0 0 1-1.1 1.8 3.7 3.7 0 0 1-1.5 1.3 3.2 3.2 0 0 1-1.8.6H72l-2.9-.5-3.6-.7a14.2 14.2 0 0 1-3.3-1.2 2.6 2.6 0 0 1-1.4-2.1v-11.9l.9-.8 1.9-1.6 2.3-2.2a18.8 18.8 0 0 0 2.4-2.5 20.3 20.3 0 0 0 1.8-2.6 6.8 6.8 0 0 0 .7-2.6 3.7 3.7 0 0 0-1.2-2.7 10.5 10.5 0 0 0-2.7-2 15.6 15.6 0 0 0-3.3-1.4l-2.5-.9-1.3-9a13.1 13.1 0 0 0-.6-2.7 9.6 9.6 0 0 0-1.1-2.8 6.8 6.8 0 0 0-1.7-2.1 4.1 4.1 0 0 0-2.7-.8 12.8 12.8 0 0 0-3.6.4 15 15 0 0 0-3.2 1.5l-1.6 1-2.5 1.5-2.9 1.7-3 1.8-2.5 1.6c-.8.4-1.3 1.1-1.6 1.1h-1l-1.7-.2-2.1-.4a3.1 3.1 0 0 1-1.4-.7c-.4-.3-.3-.8-.3-1.4v-1.8c0-.6-.2-1 0-1h1.6a.5.5 0 0 1 0-.4 2.2 2.2 0 0 0 .1-.8 2.9 2.9 0 0 0 .2-.9.4.4 0 0 0 0-.5l-.7-.8-.9-.5-.7-.6a2.3 2.3 0 0 1-.3-1.3 2.6 2.6 0 0 1 .3-1.1 3.4 3.4 0 0 1 .6-1.2c.3-.3.3-.6.6-.9l.8-.3v.8c0 .5.5 1 .6 1.4a1.2 1.2 0 0 0 1.2.8 1.8 1.8 0 0 0 1.1-.5 4.8 4.8 0 0 0 .9-1.1c.3-.5.5-1.2.7-1.6s.2.2.2-1.4H20.5a2.1 2.1 0 0 1-.9-.5l-1-.7-.9-.7a1.5 1.5 0 0 1-.4-1.1 4.5 4.5 0 0 1 1.1-3.1 6.1 6.1 0 0 1 2.6-1.8 16 16 0 0 1 3.1-1 13.6 13.6 0 0 0 2.8-.8l2.2-.9 3.4-1.6 3.3-1.5a7 7 0 0 1 2.1-1.1h13.5a7.6 7.6 0 0 1 3.9 1 11.8 11.8 0 0 1 3 2.5 29.1 29.1 0 0 1 2.6 3.3l2.2 3.2a20.2 20.2 0 0 0 2.3 2.6 3.7 3.7 0 0 0 2.4 1 .9.9 0 0 0 .8-.4c.2-.3.4-.4.9-.4l1.5.3 1.5.7 1.5.7 1.5.3 4.1-.2 4.1-.5 4-.4a28.3 28.3 0 0 1 4.1-.3c2.5 0 4.9.2 7.2.4a38.9 38.9 0 0 1 7.2 1.6c1.6.6 3.3 1.2 5 2l5.1 2.1 5.1 1.8a25 25 0 0 0 5.4.7h2.6l12.7-2.6c4.3-.9 8.5-1.7 12.8-2.3s8.5-1.2 12.8-1.6 8.6-.5 13-.5h8.7a50.7 50.7 0 0 1 5 .9l36.1 7.2h11.6c-.8 0-1.8 1-3.1 1.4a26.1 26.1 0 0 1-4 .1z"/></svg>